<svg version="1.1" xmlns="http://www.w3.org/2000/svg" xmlns:xlink="http://www.w3.org/1999/xlink" width="508" height="292"><defs/><g><text fill="#eeeeee" stroke="none" font-family="Arial" font-size="24px" font-style="normal" font-weight="normal" text-decoration="none" x="0" y="0"></text><text fill="#eeeeee" stroke="none" font-family="Arial" font-size="24px" font-style="normal" font-weight="normal" text-decoration="none" x="0" y="30"></text><text fill="#eeeeee" stroke="none" font-family="Arial" font-size="24px" font-style="normal" font-weight="normal" text-decoration="none" x="0" y="60"></text><text fill="#eeeeee" stroke="none" font-family="Arial" font-size="24px" font-style="normal" font-weight="normal" text-decoration="none" x="0" y="90"></text><text fill="#eeeeee" stroke="none" font-family="Arial" font-size="24px" font-style="normal" font-weight="normal" text-decoration="none" x="0" y="120"></text><text fill="#eeeeee" stroke="none" font-family="Arial" font-size="24px" font-style="normal" font-weight="normal" text-decoration="none" x="0" y="150"></text><text fill="#eeeeee" stroke="none" font-family="Arial" font-size="24px" font-style="normal" font-weight="normal" text-decoration="none" x="0" y="180"></text><text fill="#eeeeee" stroke="none" font-family="Arial" font-size="24px" font-style="normal" font-weight="normal" text-decoration="none" x="0" y="210"></text><text fill="#eeeeee" stroke="none" font-family="Arial" font-size="24px" font-style="normal" font-weight="normal" text-decoration="none" x="0" y="240"></text><text fill="#eeeeee" stroke="none" font-family="Arial" font-size="24px" font-style="normal" font-weight="normal" text-decoration="none" x="0" y="270"></text><text fill="#eeeeee" stroke="none" font-family="Arial" font-size="24px" font-style="normal" font-weight="normal" text-decoration="none" x="200" y="0"></text><text fill="#eeeeee" stroke="none" font-family="Arial" font-size="24px" font-style="normal" font-weight="normal" text-decoration="none" x="200" y="30"></text><text fill="#eeeeee" stroke="none" font-family="Arial" font-size="24px" font-style="normal" font-weight="normal" text-decoration="none" x="200" y="60"></text><text fill="#eeeeee" stroke="none" font-family="Arial" font-size="24px" font-style="normal" font-weight="normal" text-decoration="none" x="200" y="90"></text><text fill="#eeeeee" stroke="none" font-family="Arial" font-size="24px" font-style="normal" font-weight="normal" text-decoration="none" x="200" y="120"></text><text fill="#eeeeee" stroke="none" font-family="Arial" font-size="24px" font-style="normal" font-weight="normal" text-decoration="none" x="200" y="150"></text><text fill="#eeeeee" stroke="none" font-family="Arial" font-size="24px" font-style="normal" font-weight="normal" text-decoration="none" x="200" y="180"></text><text fill="#eeeeee" stroke="none" font-family="Arial" font-size="24px" font-style="normal" font-weight="normal" text-decoration="none" x="200" y="210"></text><text fill="#eeeeee" stroke="none" font-family="Arial" font-size="24px" font-style="normal" font-weight="normal" text-decoration="none" x="200" y="240"></text><text fill="#eeeeee" stroke="none" font-family="Arial" font-size="24px" font-style="normal" font-weight="normal" text-decoration="none" x="200" y="270"></text><text fill="#eeeeee" stroke="none" font-family="Arial" font-size="24px" font-style="normal" font-weight="normal" text-decoration="none" x="400" y="0"></text><text fill="#eeeeee" stroke="none" font-family="Arial" font-size="24px" font-style="normal" font-weight="normal" text-decoration="none" x="400" y="30"></text><text fill="#eeeeee" stroke="none" font-family="Arial" font-size="24px" font-style="normal" font-weight="normal" text-decoration="none" x="400" y="60"></text><text fill="#eeeeee" stroke="none" font-family="Arial" font-size="24px" font-style="normal" font-weight="normal" text-decoration="none" x="400" y="90"></text><text fill="#eeeeee" stroke="none" font-family="Arial" font-size="24px" font-style="normal" font-weight="normal" text-decoration="none" x="400" y="120"></text><text fill="#eeeeee" stroke="none" font-family="Arial" font-size="24px" font-style="normal" font-weight="normal" text-decoration="none" x="400" y="150"></text><text fill="#eeeeee" stroke="none" font-family="Arial" font-size="24px" font-style="normal" font-weight="normal" text-decoration="none" x="400" y="180"></text><text fill="#eeeeee" stroke="none" font-family="Arial" font-size="24px" font-style="normal" font-weight="normal" text-decoration="none" x="400" y="210"></text><text fill="#eeeeee" stroke="none" font-family="Arial" font-size="24px" font-style="normal" font-weight="normal" text-decoration="none" x="400" y="240"></text><text fill="#eeeeee" stroke="none" font-family="Arial" font-size="24px" font-style="normal" font-weight="normal" text-decoration="none" x="400" y="270"></text><g transform="translate(-118,-86) scale(1,1)"><rect fill="#C0C0C0" stroke="none" x="343" y="103" width="280" height="272" opacity="0.2"/></g><g transform="translate(-118,-86) scale(1,1)"><rect fill="#ffffff" stroke="none" x="336" y="96" width="280" height="272"/></g><g transform="translate(-118,-86) scale(1,1)"><path fill="none" stroke="#000000" d="M 336 96 L 616 96 L 616 368 L 336 368 L 336 96 Z Z" stroke-miterlimit="10"/></g><g transform="translate(-118,-86) scale(1,1)"><g><path fill="none" stroke="none"/><text fill="#000000" stroke="none" font-family="Arial" font-size="13px" font-style="normal" font-weight="bold" text-decoration="none" x="452.155029296875" y="115.5">PacMan</text></g></g><g transform="translate(-118,-86) scale(1,1)"><path fill="#ffffff" stroke="none" d="M 155.60661594460228 193.68 C 155.60661594460228 188.886167936 159.49245826954774 185 164.285888671875 185 C 169.07931907420226 185 172.96516139914772 188.886167936 172.96516139914772 193.68 C 172.96516139914772 198.47383206400002 169.07931907420226 202.36 164.285888671875 202.36 C 159.49245826954774 202.36 155.60661594460228 198.47383206400002 155.60661594460228 193.68 Z"/></g><g transform="translate(-118,-86) scale(1,1)"><path fill="none" stroke="#000000" d="M 155.60661594460228 193.68 C 155.60661594460228 188.886167936 159.49245826954774 185 164.285888671875 185 C 169.07931907420226 185 172.96516139914772 188.886167936 172.96516139914772 193.68 C 172.96516139914772 198.47383206400002 169.07931907420226 202.36 164.285888671875 202.36 C 159.49245826954774 202.36 155.60661594460228 198.47383206400002 155.60661594460228 193.68 Z" stroke-miterlimit="10"/></g><g transform="translate(-118,-86) scale(1,1)"><path fill="none" stroke="#000000" d="M 164.285888671875 202.36 L 164.285888671875 219.64" stroke-miterlimit="10"/></g><g transform="translate(-118,-86) scale(1,1)"><path fill="none" stroke="#000000" d="M 155.09607049005683 208.84 L 173.47570685369317 208.84" stroke-miterlimit="10"/></g><g transform="translate(-118,-86) scale(1,1)"><path fill="none" stroke="#000000" d="M 164.285888671875 219.64 L 151.52225230823865 237" stroke-miterlimit="10"/></g><g transform="translate(-118,-86) scale(1,1)"><path fill="none" stroke="#000000" d="M 164.285888671875 219.64 L 177.04952503551135 237" stroke-miterlimit="10"/></g><g transform="translate(-118,-86) scale(1,1)"><g><path fill="none" stroke="none"/><text fill="#000000" stroke="none" font-family="Arial" font-size="13px" font-style="normal" font-weight="bold" text-decoration="none" x="135.38818359375" y="257.5">Utilisateur</text></g></g><g transform="translate(-118,-86) scale(1,1)"><path fill="#C0C0C0" stroke="none" d="M 415 176 C 415 166.6111584 437.6096176 159 465.5 159 C 493.3903824 159 516 166.6111584 516 176 C 516 185.3888416 493.3903824 193 465.5 193 C 437.6096176 193 415 185.3888416 415 176 Z" opacity="0.2"/></g><g transform="translate(-118,-86) scale(1,1)"><path fill="#ffffff" stroke="none" d="M 408 169 C 408 159.6111584 430.6096176 152 458.5 152 C 486.3903824 152 509 159.6111584 509 169 C 509 178.3888416 486.3903824 186 458.5 186 C 430.6096176 186 408 178.3888416 408 169 Z"/></g><g transform="translate(-118,-86) scale(1,1)"><path fill="none" stroke="#000000" d="M 408 169 C 408 159.6111584 430.6096176 152 458.5 152 C 486.3903824 152 509 159.6111584 509 169 C 509 178.3888416 486.3903824 186 458.5 186 C 430.6096176 186 408 178.3888416 408 169 Z" stroke-miterlimit="10"/></g><g transform="translate(-118,-86) scale(1,1)"><g><path fill="none" stroke="none"/><text fill="#000000" stroke="none" font-family="Arial" font-size="13px" font-style="normal" font-weight="bold" text-decoration="none" x="442.240478515625" y="176">Jouer</text></g></g><g transform="translate(-118,-86) scale(1,1)"><path fill="#C0C0C0" stroke="none" d="M 383 272 C 383 262.6111584 426.4283744 255 480 255 C 533.5716256000001 255 577 262.6111584 577 272 C 577 281.3888416 533.5716256000001 289 480 289 C 426.4283744 289 383 281.3888416 383 272 Z" opacity="0.2"/></g><g transform="translate(-118,-86) scale(1,1)"><path fill="#ffffff" stroke="none" d="M 376 265 C 376 255.6111584 419.4283744 248 473 248 C 526.5716256000001 248 570 255.6111584 570 265 C 570 274.3888416 526.5716256000001 282 473 282 C 419.4283744 282 376 274.3888416 376 265 Z"/></g><g transform="translate(-118,-86) scale(1,1)"><path fill="none" stroke="#000000" d="M 376 265 C 376 255.6111584 419.4283744 248 473 248 C 526.5716256000001 248 570 255.6111584 570 265 C 570 274.3888416 526.5716256000001 282 473 282 C 419.4283744 282 376 274.3888416 376 265 Z" stroke-miterlimit="10"/></g><g transform="translate(-118,-86) scale(1,1)"><g><path fill="none" stroke="none"/><text fill="#000000" stroke="none" font-family="Arial" font-size="13px" font-style="normal" font-weight="bold" text-decoration="none" x="414.115966796875" y="272">Consulter les scores</text></g></g><g transform="translate(-118,-86) scale(1,1)"><path fill="none" stroke="#000000" d="M 202 216 L 407 178" stroke-miterlimit="10"/></g><g transform="translate(-118,-86) scale(1,1)"><path fill="none" stroke="#000000" d="M 202 228 L 375 252" stroke-miterlimit="10"/></g></g></svg>