<svg version="1.1" xmlns="http://www.w3.org/2000/svg" xmlns:xlink="http://www.w3.org/1999/xlink" width="888.92529296875" height="397"><defs/><g><text fill="#eeeeee" stroke="none" font-family="Arial" font-size="24px" font-style="normal" font-weight="normal" text-decoration="none" x="0" y="0"></text><text fill="#eeeeee" stroke="none" font-family="Arial" font-size="24px" font-style="normal" font-weight="normal" text-decoration="none" x="0" y="30"></text><text fill="#eeeeee" stroke="none" font-family="Arial" font-size="24px" font-style="normal" font-weight="normal" text-decoration="none" x="0" y="60"></text><text fill="#eeeeee" stroke="none" font-family="Arial" font-size="24px" font-style="normal" font-weight="normal" text-decoration="none" x="0" y="90"></text><text fill="#eeeeee" stroke="none" font-family="Arial" font-size="24px" font-style="normal" font-weight="normal" text-decoration="none" x="0" y="120"></text><text fill="#eeeeee" stroke="none" font-family="Arial" font-size="24px" font-style="normal" font-weight="normal" text-decoration="none" x="0" y="150"></text><text fill="#eeeeee" stroke="none" font-family="Arial" font-size="24px" font-style="normal" font-weight="normal" text-decoration="none" x="0" y="180"></text><text fill="#eeeeee" stroke="none" font-family="Arial" font-size="24px" font-style="normal" font-weight="normal" text-decoration="none" x="0" y="210"></text><text fill="#eeeeee" stroke="none" font-family="Arial" font-size="24px" font-style="normal" font-weight="normal" text-decoration="none" x="0" y="240"></text><text fill="#eeeeee" stroke="none" font-family="Arial" font-size="24px" font-style="normal" font-weight="normal" text-decoration="none" x="0" y="270"></text><text fill="#eeeeee" stroke="none" font-family="Arial" font-size="24px" font-style="normal" font-weight="normal" text-decoration="none" x="0" y="300"></text><text fill="#eeeeee" stroke="none" font-family="Arial" font-size="24px" font-style="normal" font-weight="normal" text-decoration="none" x="0" y="330"></text><text fill="#eeeeee" stroke="none" font-family="Arial" font-size="24px" font-style="normal" font-weight="normal" text-decoration="none" x="0" y="360"></text><text fill="#eeeeee" stroke="none" font-family="Arial" font-size="24px" font-style="normal" font-weight="normal" text-decoration="none" x="0" y="390"></text><text fill="#eeeeee" stroke="none" font-family="Arial" font-size="24px" font-style="normal" font-weight="normal" text-decoration="none" x="200" y="0"></text><text fill="#eeeeee" stroke="none" font-family="Arial" font-size="24px" font-style="normal" font-weight="normal" text-decoration="none" x="200" y="30"></text><text fill="#eeeeee" stroke="none" font-family="Arial" font-size="24px" font-style="normal" font-weight="normal" text-decoration="none" x="200" y="60"></text><text fill="#eeeeee" stroke="none" font-family="Arial" font-size="24px" font-style="normal" font-weight="normal" text-decoration="none" x="200" y="90"></text><text fill="#eeeeee" stroke="none" font-family="Arial" font-size="24px" font-style="normal" font-weight="normal" text-decoration="none" x="200" y="120"></text><text fill="#eeeeee" stroke="none" font-family="Arial" font-size="24px" font-style="normal" font-weight="normal" text-decoration="none" x="200" y="150"></text><text fill="#eeeeee" stroke="none" font-family="Arial" font-size="24px" font-style="normal" font-weight="normal" text-decoration="none" x="200" y="180"></text><text fill="#eeeeee" stroke="none" font-family="Arial" font-size="24px" font-style="normal" font-weight="normal" text-decoration="none" x="200" y="210"></text><text fill="#eeeeee" stroke="none" font-family="Arial" font-size="24px" font-style="normal" font-weight="normal" text-decoration="none" x="200" y="240"></text><text fill="#eeeeee" stroke="none" font-family="Arial" font-size="24px" font-style="normal" font-weight="normal" text-decoration="none" x="200" y="270"></text><text fill="#eeeeee" stroke="none" font-family="Arial" font-size="24px" font-style="normal" font-weight="normal" text-decoration="none" x="200" y="300"></text><text fill="#eeeeee" stroke="none" font-family="Arial" font-size="24px" font-style="normal" font-weight="normal" text-decoration="none" x="200" y="330"></text><text fill="#eeeeee" stroke="none" font-family="Arial" font-size="24px" font-style="normal" font-weight="normal" text-decoration="none" x="200" y="360"></text><text fill="#eeeeee" stroke="none" font-family="Arial" font-size="24px" font-style="normal" font-weight="normal" text-decoration="none" x="200" y="390"></text><text fill="#eeeeee" stroke="none" font-family="Arial" font-size="24px" font-style="normal" font-weight="normal" text-decoration="none" x="400" y="0"></text><text fill="#eeeeee" stroke="none" font-family="Arial" font-size="24px" font-style="normal" font-weight="normal" text-decoration="none" x="400" y="30"></text><text fill="#eeeeee" stroke="none" font-family="Arial" font-size="24px" font-style="normal" font-weight="normal" text-decoration="none" x="400" y="60"></text><text fill="#eeeeee" stroke="none" font-family="Arial" font-size="24px" font-style="normal" font-weight="normal" text-decoration="none" x="400" y="90"></text><text fill="#eeeeee" stroke="none" font-family="Arial" font-size="24px" font-style="normal" font-weight="normal" text-decoration="none" x="400" y="120"></text><text fill="#eeeeee" stroke="none" font-family="Arial" font-size="24px" font-style="normal" font-weight="normal" text-decoration="none" x="400" y="150"></text><text fill="#eeeeee" stroke="none" font-family="Arial" font-size="24px" font-style="normal" font-weight="normal" text-decoration="none" x="400" y="180"></text><text fill="#eeeeee" stroke="none" font-family="Arial" font-size="24px" font-style="normal" font-weight="normal" text-decoration="none" x="400" y="210"></text><text fill="#eeeeee" stroke="none" font-family="Arial" font-size="24px" font-style="normal" font-weight="normal" text-decoration="none" x="400" y="240"></text><text fill="#eeeeee" stroke="none" font-family="Arial" font-size="24px" font-style="normal" font-weight="normal" text-decoration="none" x="400" y="270"></text><text fill="#eeeeee" stroke="none" font-family="Arial" font-size="24px" font-style="normal" font-weight="normal" text-decoration="none" x="400" y="300"></text><text fill="#eeeeee" stroke="none" font-family="Arial" font-size="24px" font-style="normal" font-weight="normal" text-decoration="none" x="400" y="330"></text><text fill="#eeeeee" stroke="none" font-family="Arial" font-size="24px" font-style="normal" font-weight="normal" text-decoration="none" x="400" y="360"></text><text fill="#eeeeee" stroke="none" font-family="Arial" font-size="24px" font-style="normal" font-weight="normal" text-decoration="none" x="400" y="390"></text><text fill="#eeeeee" stroke="none" font-family="Arial" font-size="24px" font-style="normal" font-weight="normal" text-decoration="none" x="600" y="0"></text><text fill="#eeeeee" stroke="none" font-family="Arial" font-size="24px" font-style="normal" font-weight="normal" text-decoration="none" x="600" y="30"></text><text fill="#eeeeee" stroke="none" font-family="Arial" font-size="24px" font-style="normal" font-weight="normal" text-decoration="none" x="600" y="60"></text><text fill="#eeeeee" stroke="none" font-family="Arial" font-size="24px" font-style="normal" font-weight="normal" text-decoration="none" x="600" y="90"></text><text fill="#eeeeee" stroke="none" font-family="Arial" font-size="24px" font-style="normal" font-weight="normal" text-decoration="none" x="600" y="120"></text><text fill="#eeeeee" stroke="none" font-family="Arial" font-size="24px" font-style="normal" font-weight="normal" text-decoration="none" x="600" y="150"></text><text fill="#eeeeee" stroke="none" font-family="Arial" font-size="24px" font-style="normal" font-weight="normal" text-decoration="none" x="600" y="180"></text><text fill="#eeeeee" stroke="none" font-family="Arial" font-size="24px" font-style="normal" font-weight="normal" text-decoration="none" x="600" y="210"></text><text fill="#eeeeee" stroke="none" font-family="Arial" font-size="24px" font-style="normal" font-weight="normal" text-decoration="none" x="600" y="240"></text><text fill="#eeeeee" stroke="none" font-family="Arial" font-size="24px" font-style="normal" font-weight="normal" text-decoration="none" x="600" y="270"></text><text fill="#eeeeee" stroke="none" font-family="Arial" font-size="24px" font-style="normal" font-weight="normal" text-decoration="none" x="600" y="300"></text><text fill="#eeeeee" stroke="none" font-family="Arial" font-size="24px" font-style="normal" font-weight="normal" text-decoration="none" x="600" y="330"></text><text fill="#eeeeee" stroke="none" font-family="Arial" font-size="24px" font-style="normal" font-weight="normal" text-decoration="none" x="600" y="360"></text><text fill="#eeeeee" stroke="none" font-family="Arial" font-size="24px" font-style="normal" font-weight="normal" text-decoration="none" x="600" y="390"></text><text fill="#eeeeee" stroke="none" font-family="Arial" font-size="24px" font-style="normal" font-weight="normal" text-decoration="none" x="800" y="0"></text><text fill="#eeeeee" stroke="none" font-family="Arial" font-size="24px" font-style="normal" font-weight="normal" text-decoration="none" x="800" y="30"></text><text fill="#eeeeee" stroke="none" font-family="Arial" font-size="24px" font-style="normal" font-weight="normal" text-decoration="none" x="800" y="60"></text><text fill="#eeeeee" stroke="none" font-family="Arial" font-size="24px" font-style="normal" font-weight="normal" text-decoration="none" x="800" y="90"></text><text fill="#eeeeee" stroke="none" font-family="Arial" font-size="24px" font-style="normal" font-weight="normal" text-decoration="none" x="800" y="120"></text><text fill="#eeeeee" stroke="none" font-family="Arial" font-size="24px" font-style="normal" font-weight="normal" text-decoration="none" x="800" y="150"></text><text fill="#eeeeee" stroke="none" font-family="Arial" font-size="24px" font-style="normal" font-weight="normal" text-decoration="none" x="800" y="180"></text><text fill="#eeeeee" stroke="none" font-family="Arial" font-size="24px" font-style="normal" font-weight="normal" text-decoration="none" x="800" y="210"></text><text fill="#eeeeee" stroke="none" font-family="Arial" font-size="24px" font-style="normal" font-weight="normal" text-decoration="none" x="800" y="240"></text><text fill="#eeeeee" stroke="none" font-family="Arial" font-size="24px" font-style="normal" font-weight="normal" text-decoration="none" x="800" y="270"></text><text fill="#eeeeee" stroke="none" font-family="Arial" font-size="24px" font-style="normal" font-weight="normal" text-decoration="none" x="800" y="300"></text><text fill="#eeeeee" stroke="none" font-family="Arial" font-size="24px" font-style="normal" font-weight="normal" text-decoration="none" x="800" y="330"></text><text fill="#eeeeee" stroke="none" font-family="Arial" font-size="24px" font-style="normal" font-weight="normal" text-decoration="none" x="800" y="360"></text><text fill="#eeeeee" stroke="none" font-family="Arial" font-size="24px" font-style="normal" font-weight="normal" text-decoration="none" x="800" y="390"></text><g transform="translate(-67,-81) scale(1,1)"><rect fill="#C0C0C0" stroke="none" x="84" y="186" width="27.5966796875" height="15" opacity="0.2"/></g><g transform="translate(-67,-81) scale(1,1)"><rect fill="#C0C0C0" stroke="none" x="84" y="200" width="68.99169921875" height="25" opacity="0.2"/></g><g transform="translate(-67,-81) scale(1,1)"><rect fill="#840084" stroke="none" x="77" y="194" width="68.99169921875" height="24"/></g><g transform="translate(-67,-81) scale(1,1)"><path fill="none" stroke="#000000" d="M 77 194 L 145.99169921875 194 L 145.99169921875 218 L 77 218 L 77 194 Z Z" stroke-miterlimit="10"/></g><g transform="translate(-67,-81) scale(1,1)"><rect fill="#840084" stroke="none" x="77" y="179" width="27.5966796875" height="15"/></g><g transform="translate(-67,-81) scale(1,1)"><path fill="none" stroke="#000000" d="M 77 179 L 104.5966796875 179 L 104.5966796875 194 L 77 194 L 77 179 Z Z" stroke-miterlimit="10"/></g><g transform="translate(-67,-81) scale(1,1)"><rect fill="#840084" stroke="none" x="77" y="193" width="68.99169921875" height="25"/></g><g transform="translate(-67,-81) scale(1,1)"><path fill="none" stroke="#000000" d="M 77 193 L 145.99169921875 193 L 145.99169921875 218 L 77 218 L 77 193 Z Z" stroke-miterlimit="10"/></g><g transform="translate(-67,-81) scale(1,1)"><g><path fill="none" stroke="none"/><text fill="#000000" stroke="none" font-family="Arial" font-size="13px" font-style="normal" font-weight="bold" text-decoration="none" x="86.562255859375" y="213.5">launcher</text></g></g><g transform="translate(-67,-81) scale(1,1)"><rect fill="#C0C0C0" stroke="none" x="564" y="210" width="27.5966796875" height="15" opacity="0.2"/></g><g transform="translate(-67,-81) scale(1,1)"><rect fill="#C0C0C0" stroke="none" x="564" y="224" width="68.99169921875" height="25" opacity="0.2"/></g><g transform="translate(-67,-81) scale(1,1)"><rect fill="#468c00" stroke="none" x="557" y="218" width="68.99169921875" height="24"/></g><g transform="translate(-67,-81) scale(1,1)"><path fill="none" stroke="#000000" d="M 557 218 L 625.99169921875 218 L 625.99169921875 242 L 557 242 L 557 218 Z Z" stroke-miterlimit="10"/></g><g transform="translate(-67,-81) scale(1,1)"><rect fill="#468c00" stroke="none" x="557" y="203" width="27.5966796875" height="15"/></g><g transform="translate(-67,-81) scale(1,1)"><path fill="none" stroke="#000000" d="M 557 203 L 584.5966796875 203 L 584.5966796875 218 L 557 218 L 557 203 Z Z" stroke-miterlimit="10"/></g><g transform="translate(-67,-81) scale(1,1)"><rect fill="#468c00" stroke="none" x="557" y="217" width="68.99169921875" height="25"/></g><g transform="translate(-67,-81) scale(1,1)"><path fill="none" stroke="#000000" d="M 557 217 L 625.99169921875 217 L 625.99169921875 242 L 557 242 L 557 217 Z Z" stroke-miterlimit="10"/></g><g transform="translate(-67,-81) scale(1,1)"><g><path fill="none" stroke="none"/><text fill="#000000" stroke="none" font-family="Arial" font-size="13px" font-style="normal" font-weight="bold" text-decoration="none" x="573.792236328125" y="237.5">model</text></g></g><g transform="translate(-67,-81) scale(1,1)"><rect fill="#C0C0C0" stroke="none" x="308" y="98" width="27.5966796875" height="15" opacity="0.2"/></g><g transform="translate(-67,-81) scale(1,1)"><rect fill="#C0C0C0" stroke="none" x="308" y="112" width="68.99169921875" height="25" opacity="0.2"/></g><g transform="translate(-67,-81) scale(1,1)"><rect fill="#a3e0ff" stroke="none" x="301" y="106" width="68.99169921875" height="24"/></g><g transform="translate(-67,-81) scale(1,1)"><path fill="none" stroke="#000000" d="M 301 106 L 369.99169921875 106 L 369.99169921875 130 L 301 130 L 301 106 Z Z" stroke-miterlimit="10"/></g><g transform="translate(-67,-81) scale(1,1)"><rect fill="#a3e0ff" stroke="none" x="301" y="91" width="27.5966796875" height="15"/></g><g transform="translate(-67,-81) scale(1,1)"><path fill="none" stroke="#000000" d="M 301 91 L 328.5966796875 91 L 328.5966796875 106 L 301 106 L 301 91 Z Z" stroke-miterlimit="10"/></g><g transform="translate(-67,-81) scale(1,1)"><rect fill="#a3e0ff" stroke="none" x="301" y="105" width="68.99169921875" height="25"/></g><g transform="translate(-67,-81) scale(1,1)"><path fill="none" stroke="#000000" d="M 301 105 L 369.99169921875 105 L 369.99169921875 130 L 301 130 L 301 105 Z Z" stroke-miterlimit="10"/></g><g transform="translate(-67,-81) scale(1,1)"><g><path fill="none" stroke="none"/><text fill="#000000" stroke="none" font-family="Arial" font-size="13px" font-style="normal" font-weight="bold" text-decoration="none" x="322.49267578125" y="125.5">view</text></g></g><g transform="translate(-67,-81) scale(1,1)"><rect fill="#C0C0C0" stroke="none" x="252" y="327" width="27.5966796875" height="15" opacity="0.2"/></g><g transform="translate(-67,-81) scale(1,1)"><rect fill="#C0C0C0" stroke="none" x="252" y="341" width="68.99169921875" height="25" opacity="0.2"/></g><g transform="translate(-67,-81) scale(1,1)"><rect fill="#ff2b2b" stroke="none" x="245" y="335" width="68.99169921875" height="24"/></g><g transform="translate(-67,-81) scale(1,1)"><path fill="none" stroke="#000000" d="M 245 335 L 313.99169921875 335 L 313.99169921875 359 L 245 359 L 245 335 Z Z" stroke-miterlimit="10"/></g><g transform="translate(-67,-81) scale(1,1)"><rect fill="#ff2b2b" stroke="none" x="245" y="320" width="27.5966796875" height="15"/></g><g transform="translate(-67,-81) scale(1,1)"><path fill="none" stroke="#000000" d="M 245 320 L 272.5966796875 320 L 272.5966796875 335 L 245 335 L 245 320 Z Z" stroke-miterlimit="10"/></g><g transform="translate(-67,-81) scale(1,1)"><rect fill="#ff2b2b" stroke="none" x="245" y="334" width="68.99169921875" height="25"/></g><g transform="translate(-67,-81) scale(1,1)"><path fill="none" stroke="#000000" d="M 245 334 L 313.99169921875 334 L 313.99169921875 359 L 245 359 L 245 334 Z Z" stroke-miterlimit="10"/></g><g transform="translate(-67,-81) scale(1,1)"><g><path fill="none" stroke="none"/><text fill="#000000" stroke="none" font-family="Arial" font-size="13px" font-style="normal" font-weight="bold" text-decoration="none" x="254.206787109375" y="354.5">animator</text></g></g><g transform="translate(-67,-81) scale(1,1)"><path fill="none" stroke="#000000" d="M 315 326 L 556 235" stroke-miterlimit="10"/></g><g transform="translate(-67,-81) scale(1,1)"><path fill="#FFFFFF" stroke="none" d="M 542.451296171395 237.47274708880934 C 542.451296171395 233.60675348880935 545.585302571395 230.47274708880934 549.451296171395 230.47274708880934 C 553.317289771395 230.47274708880934 556.451296171395 233.60675348880935 556.451296171395 237.47274708880934 C 556.451296171395 241.33874068880934 553.317289771395 244.47274708880934 549.451296171395 244.47274708880934 C 545.585302571395 244.47274708880934 542.451296171395 241.33874068880934 542.451296171395 237.47274708880934 Z"/></g><g transform="translate(-67,-81) scale(1,1)"><path fill="none" stroke="#000000" d="M 542.451296171395 237.47274708880934 C 542.451296171395 233.60675348880935 545.585302571395 230.47274708880934 549.451296171395 230.47274708880934 C 553.317289771395 230.47274708880934 556.451296171395 233.60675348880935 556.451296171395 237.47274708880934 C 556.451296171395 241.33874068880934 553.317289771395 244.47274708880934 549.451296171395 244.47274708880934 C 545.585302571395 244.47274708880934 542.451296171395 241.33874068880934 542.451296171395 237.47274708880934 Z" stroke-miterlimit="10"/></g><g transform="translate(-67,-81) scale(1,1)"><path fill="none" stroke="#000000" d="M 542.9025923427902 239.94549417761866 L 556 235" stroke-miterlimit="10"/></g><g transform="translate(-67,-81) scale(1,1)"><path fill="none" stroke="#000000" d="M 551.9240432602044 244.02145091741428 L 546.9785490825857 230.9240432602044" stroke-miterlimit="10"/></g><g transform="translate(-67,-81) scale(1,1)"><rect fill="#C0C0C0" stroke="none" x="330.99169921875" y="327" width="27.5966796875" height="15" opacity="0.2"/></g><g transform="translate(-67,-81) scale(1,1)"><rect fill="#C0C0C0" stroke="none" x="330.99169921875" y="341" width="68.99169921875" height="25" opacity="0.2"/></g><g transform="translate(-67,-81) scale(1,1)"><rect fill="#aaaaaa" stroke="none" x="323.99169921875" y="335" width="68.99169921875" height="24"/></g><g transform="translate(-67,-81) scale(1,1)"><path fill="none" stroke="#000000" d="M 323.99169921875 335 L 392.9833984375 335 L 392.9833984375 359 L 323.99169921875 359 L 323.99169921875 335 Z Z" stroke-miterlimit="10"/></g><g transform="translate(-67,-81) scale(1,1)"><rect fill="#aaaaaa" stroke="none" x="323.99169921875" y="320" width="27.5966796875" height="15"/></g><g transform="translate(-67,-81) scale(1,1)"><path fill="none" stroke="#000000" d="M 323.99169921875 320 L 351.58837890625 320 L 351.58837890625 335 L 323.99169921875 335 L 323.99169921875 320 Z Z" stroke-miterlimit="10"/></g><g transform="translate(-67,-81) scale(1,1)"><rect fill="#aaaaaa" stroke="none" x="323.99169921875" y="334" width="68.99169921875" height="25"/></g><g transform="translate(-67,-81) scale(1,1)"><path fill="none" stroke="#000000" d="M 323.99169921875 334 L 392.9833984375 334 L 392.9833984375 359 L 323.99169921875 359 L 323.99169921875 334 Z Z" stroke-miterlimit="10"/></g><g transform="translate(-67,-81) scale(1,1)"><g><path fill="none" stroke="none"/><text fill="#000000" stroke="none" font-family="Arial" font-size="13px" font-style="normal" font-weight="bold" text-decoration="none" x="337.895751953125" y="354.5">collider</text></g></g><g transform="translate(-67,-81) scale(1,1)"><path fill="none" stroke="#000000" d="M 394 321 L 556 240" stroke-miterlimit="10"/></g><g transform="translate(-67,-81) scale(1,1)"><path fill="#FFFFFF" stroke="none" d="M 542.7390096630006 243.1304951684997 C 542.7390096630006 239.2645015684997 545.8730160630006 236.1304951684997 549.7390096630006 236.1304951684997 C 553.6050032630006 236.1304951684997 556.7390096630006 239.2645015684997 556.7390096630006 243.1304951684997 C 556.7390096630006 246.9964887684997 553.6050032630006 250.1304951684997 549.7390096630006 250.1304951684997 C 545.8730160630006 250.1304951684997 542.7390096630006 246.9964887684997 542.7390096630006 243.1304951684997 Z"/></g><g transform="translate(-67,-81) scale(1,1)"><path fill="none" stroke="#000000" d="M 542.7390096630006 243.1304951684997 C 542.7390096630006 239.2645015684997 545.8730160630006 236.1304951684997 549.7390096630006 236.1304951684997 C 553.6050032630006 236.1304951684997 556.7390096630006 239.2645015684997 556.7390096630006 243.1304951684997 C 556.7390096630006 246.9964887684997 553.6050032630006 250.1304951684997 549.7390096630006 250.1304951684997 C 545.8730160630006 250.1304951684997 542.7390096630006 246.9964887684997 542.7390096630006 243.1304951684997 Z" stroke-miterlimit="10"/></g><g transform="translate(-67,-81) scale(1,1)"><path fill="none" stroke="#000000" d="M 543.4780193260012 246.2609903369994 L 556 240" stroke-miterlimit="10"/></g><g transform="translate(-67,-81) scale(1,1)"><path fill="none" stroke="#000000" d="M 552.8695048315003 249.3914855054991 L 546.6085144945009 236.86950483150028" stroke-miterlimit="10"/></g><g transform="translate(-67,-81) scale(1,1)"><rect fill="#C0C0C0" stroke="none" x="409.9833984375" y="327" width="27.5966796875" height="15" opacity="0.2"/></g><g transform="translate(-67,-81) scale(1,1)"><rect fill="#C0C0C0" stroke="none" x="409.9833984375" y="341" width="68.99169921875" height="25" opacity="0.2"/></g><g transform="translate(-67,-81) scale(1,1)"><rect fill="#ffff00" stroke="none" x="402.9833984375" y="335" width="68.99169921875" height="24"/></g><g transform="translate(-67,-81) scale(1,1)"><path fill="none" stroke="#000000" d="M 402.9833984375 335 L 471.97509765625 335 L 471.97509765625 359 L 402.9833984375 359 L 402.9833984375 335 Z Z" stroke-miterlimit="10"/></g><g transform="translate(-67,-81) scale(1,1)"><rect fill="#ffff00" stroke="none" x="402.9833984375" y="320" width="27.5966796875" height="15"/></g><g transform="translate(-67,-81) scale(1,1)"><path fill="none" stroke="#000000" d="M 402.9833984375 320 L 430.580078125 320 L 430.580078125 335 L 402.9833984375 335 L 402.9833984375 320 Z Z" stroke-miterlimit="10"/></g><g transform="translate(-67,-81) scale(1,1)"><rect fill="#ffff00" stroke="none" x="402.9833984375" y="334" width="68.99169921875" height="25"/></g><g transform="translate(-67,-81) scale(1,1)"><path fill="none" stroke="#000000" d="M 402.9833984375 334 L 471.97509765625 334 L 471.97509765625 359 L 402.9833984375 359 L 402.9833984375 334 Z Z" stroke-miterlimit="10"/></g><g transform="translate(-67,-81) scale(1,1)"><g><path fill="none" stroke="none"/><text fill="#000000" stroke="none" font-family="Arial" font-size="13px" font-style="normal" font-weight="bold" text-decoration="none" x="411.466552734375" y="354.5">displacer</text></g></g><g transform="translate(-67,-81) scale(1,1)"><path fill="none" stroke="#000000" d="M 463 319 L 563 243" stroke-miterlimit="10"/></g><g transform="translate(-67,-81) scale(1,1)"><path fill="#FFFFFF" stroke="none" d="M 550.4268646411383 247.2355828727349 C 550.4268646411383 243.3695892727349 553.5608710411383 240.2355828727349 557.4268646411383 240.2355828727349 C 561.2928582411383 240.2355828727349 564.4268646411383 243.3695892727349 564.4268646411383 247.2355828727349 C 564.4268646411383 251.1015764727349 561.2928582411383 254.2355828727349 557.4268646411383 254.2355828727349 C 553.5608710411383 254.2355828727349 550.4268646411383 251.1015764727349 550.4268646411383 247.2355828727349 Z"/></g><g transform="translate(-67,-81) scale(1,1)"><path fill="none" stroke="#000000" d="M 550.4268646411383 247.2355828727349 C 550.4268646411383 243.3695892727349 553.5608710411383 240.2355828727349 557.4268646411383 240.2355828727349 C 561.2928582411383 240.2355828727349 564.4268646411383 243.3695892727349 564.4268646411383 247.2355828727349 C 564.4268646411383 251.1015764727349 561.2928582411383 254.2355828727349 557.4268646411383 254.2355828727349 C 553.5608710411383 254.2355828727349 550.4268646411383 251.1015764727349 550.4268646411383 247.2355828727349 Z" stroke-miterlimit="10"/></g><g transform="translate(-67,-81) scale(1,1)"><path fill="none" stroke="#000000" d="M 551.8537292822766 251.47116574546982 L 563 243" stroke-miterlimit="10"/></g><g transform="translate(-67,-81) scale(1,1)"><path fill="none" stroke="#000000" d="M 561.6624475138732 252.80871823159663 L 553.1912817684034 241.6624475138732" stroke-miterlimit="10"/></g><g transform="translate(-67,-81) scale(1,1)"><rect fill="#C0C0C0" stroke="none" x="488.97509765625" y="327" width="27.5966796875" height="15" opacity="0.2"/></g><g transform="translate(-67,-81) scale(1,1)"><rect fill="#C0C0C0" stroke="none" x="488.97509765625" y="341" width="68.99169921875" height="25" opacity="0.2"/></g><g transform="translate(-67,-81) scale(1,1)"><rect fill="#ff38ff" stroke="none" x="481.97509765625" y="335" width="68.99169921875" height="24"/></g><g transform="translate(-67,-81) scale(1,1)"><path fill="none" stroke="#000000" d="M 481.97509765625 335 L 550.966796875 335 L 550.966796875 359 L 481.97509765625 359 L 481.97509765625 335 Z Z" stroke-miterlimit="10"/></g><g transform="translate(-67,-81) scale(1,1)"><rect fill="#ff38ff" stroke="none" x="481.97509765625" y="320" width="27.5966796875" height="15"/></g><g transform="translate(-67,-81) scale(1,1)"><path fill="none" stroke="#000000" d="M 481.97509765625 320 L 509.57177734375 320 L 509.57177734375 335 L 481.97509765625 335 L 481.97509765625 320 Z Z" stroke-miterlimit="10"/></g><g transform="translate(-67,-81) scale(1,1)"><rect fill="#ff38ff" stroke="none" x="481.97509765625" y="334" width="68.99169921875" height="25"/></g><g transform="translate(-67,-81) scale(1,1)"><path fill="none" stroke="#000000" d="M 481.97509765625 334 L 550.966796875 334 L 550.966796875 359 L 481.97509765625 359 L 481.97509765625 334 Z Z" stroke-miterlimit="10"/></g><g transform="translate(-67,-81) scale(1,1)"><g><path fill="none" stroke="none"/><text fill="#000000" stroke="none" font-family="Arial" font-size="13px" font-style="normal" font-weight="bold" text-decoration="none" x="501.655517578125" y="354.5">eater</text></g></g><g transform="translate(-67,-81) scale(1,1)"><path fill="none" stroke="#000000" d="M 529 319 L 578 243" stroke-miterlimit="10"/></g><g transform="translate(-67,-81) scale(1,1)"><path fill="#FFFFFF" stroke="none" d="M 567.2068752940545 248.8832138296297 C 567.2068752940545 245.01722022962971 570.3408816940545 241.8832138296297 574.2068752940545 241.8832138296297 C 578.0728688940545 241.8832138296297 581.2068752940545 245.01722022962971 581.2068752940545 248.8832138296297 C 581.2068752940545 252.7492074296297 578.0728688940545 255.8832138296297 574.2068752940545 255.8832138296297 C 570.3408816940545 255.8832138296297 567.2068752940545 252.7492074296297 567.2068752940545 248.8832138296297 Z"/></g><g transform="translate(-67,-81) scale(1,1)"><path fill="none" stroke="#000000" d="M 567.2068752940545 248.8832138296297 C 567.2068752940545 245.01722022962971 570.3408816940545 241.8832138296297 574.2068752940545 241.8832138296297 C 578.0728688940545 241.8832138296297 581.2068752940545 245.01722022962971 581.2068752940545 248.8832138296297 C 581.2068752940545 252.7492074296297 578.0728688940545 255.8832138296297 574.2068752940545 255.8832138296297 C 570.3408816940545 255.8832138296297 567.2068752940545 252.7492074296297 567.2068752940545 248.8832138296297 Z" stroke-miterlimit="10"/></g><g transform="translate(-67,-81) scale(1,1)"><path fill="none" stroke="#000000" d="M 570.4137505881091 254.7664276592594 L 578 243" stroke-miterlimit="10"/></g><g transform="translate(-67,-81) scale(1,1)"><path fill="none" stroke="#000000" d="M 580.0900891236842 252.67633853557518 L 568.3236614644248 245.09008912368424" stroke-miterlimit="10"/></g><g transform="translate(-67,-81) scale(1,1)"><rect fill="#C0C0C0" stroke="none" x="567.966796875" y="327" width="27.5966796875" height="15" opacity="0.2"/></g><g transform="translate(-67,-81) scale(1,1)"><rect fill="#C0C0C0" stroke="none" x="567.966796875" y="341" width="68.99169921875" height="25" opacity="0.2"/></g><g transform="translate(-67,-81) scale(1,1)"><rect fill="#ff7f00" stroke="none" x="560.966796875" y="335" width="68.99169921875" height="24"/></g><g transform="translate(-67,-81) scale(1,1)"><path fill="none" stroke="#000000" d="M 560.966796875 335 L 629.95849609375 335 L 629.95849609375 359 L 560.966796875 359 L 560.966796875 335 Z Z" stroke-miterlimit="10"/></g><g transform="translate(-67,-81) scale(1,1)"><rect fill="#ff7f00" stroke="none" x="560.966796875" y="320" width="27.5966796875" height="15"/></g><g transform="translate(-67,-81) scale(1,1)"><path fill="none" stroke="#000000" d="M 560.966796875 320 L 588.5634765625 320 L 588.5634765625 335 L 560.966796875 335 L 560.966796875 320 Z Z" stroke-miterlimit="10"/></g><g transform="translate(-67,-81) scale(1,1)"><rect fill="#ff7f00" stroke="none" x="560.966796875" y="334" width="68.99169921875" height="25"/></g><g transform="translate(-67,-81) scale(1,1)"><path fill="none" stroke="#000000" d="M 560.966796875 334 L 629.95849609375 334 L 629.95849609375 359 L 560.966796875 359 L 560.966796875 334 Z Z" stroke-miterlimit="10"/></g><g transform="translate(-67,-81) scale(1,1)"><g><path fill="none" stroke="none"/><text fill="#000000" stroke="none" font-family="Arial" font-size="13px" font-style="normal" font-weight="bold" text-decoration="none" x="579.9267578125" y="354.5">entity</text></g></g><g transform="translate(-67,-81) scale(1,1)"><path fill="none" stroke="#000000" d="M 594 319 L 592 243" stroke-miterlimit="10"/></g><g transform="translate(-67,-81) scale(1,1)"><path fill="#FFFFFF" stroke="none" d="M 585.1841467746176 249.9975774354699 C 585.1841467746176 246.1315838354699 588.3181531746176 242.99757743546994 592.1841467746176 242.99757743546994 C 596.0501403746176 242.99757743546994 599.1841467746176 246.1315838354699 599.1841467746176 249.9975774354699 C 599.1841467746176 253.8635710354699 596.0501403746176 256.9975774354699 592.1841467746176 256.9975774354699 C 588.3181531746176 256.9975774354699 585.1841467746176 253.8635710354699 585.1841467746176 249.9975774354699 Z"/></g><g transform="translate(-67,-81) scale(1,1)"><path fill="none" stroke="#000000" d="M 585.1841467746176 249.9975774354699 C 585.1841467746176 246.1315838354699 588.3181531746176 242.99757743546994 592.1841467746176 242.99757743546994 C 596.0501403746176 242.99757743546994 599.1841467746176 246.1315838354699 599.1841467746176 249.9975774354699 C 599.1841467746176 253.8635710354699 596.0501403746176 256.9975774354699 592.1841467746176 256.9975774354699 C 588.3181531746176 256.9975774354699 585.1841467746176 253.8635710354699 585.1841467746176 249.9975774354699 Z" stroke-miterlimit="10"/></g><g transform="translate(-67,-81) scale(1,1)"><path fill="none" stroke="#000000" d="M 592.3682935492352 256.99515487093987 L 592 243" stroke-miterlimit="10"/></g><g transform="translate(-67,-81) scale(1,1)"><path fill="none" stroke="#000000" d="M 599.1817242100875 249.8134306608523 L 585.1865693391477 250.18172421008757" stroke-miterlimit="10"/></g><g transform="translate(-67,-81) scale(1,1)"><rect fill="#C0C0C0" stroke="none" x="647" y="327" width="27.5966796875" height="15" opacity="0.2"/></g><g transform="translate(-67,-81) scale(1,1)"><rect fill="#C0C0C0" stroke="none" x="647" y="341" width="68.99169921875" height="25" opacity="0.2"/></g><g transform="translate(-67,-81) scale(1,1)"><rect fill="#ffffff" stroke="none" x="640" y="335" width="68.99169921875" height="24"/></g><g transform="translate(-67,-81) scale(1,1)"><path fill="none" stroke="#000000" d="M 640 335 L 708.99169921875 335 L 708.99169921875 359 L 640 359 L 640 335 Z Z" stroke-miterlimit="10"/></g><g transform="translate(-67,-81) scale(1,1)"><rect fill="#ffffff" stroke="none" x="640" y="320" width="27.5966796875" height="15"/></g><g transform="translate(-67,-81) scale(1,1)"><path fill="none" stroke="#000000" d="M 640 320 L 667.5966796875 320 L 667.5966796875 335 L 640 335 L 640 320 Z Z" stroke-miterlimit="10"/></g><g transform="translate(-67,-81) scale(1,1)"><rect fill="#ffffff" stroke="none" x="640" y="334" width="68.99169921875" height="25"/></g><g transform="translate(-67,-81) scale(1,1)"><path fill="none" stroke="#000000" d="M 640 334 L 708.99169921875 334 L 708.99169921875 359 L 640 359 L 640 334 Z Z" stroke-miterlimit="10"/></g><g transform="translate(-67,-81) scale(1,1)"><g><path fill="none" stroke="none"/><text fill="#000000" stroke="none" font-family="Arial" font-size="13px" font-style="normal" font-weight="bold" text-decoration="none" x="669.436767578125" y="354.5">io</text></g></g><g transform="translate(-67,-81) scale(1,1)"><path fill="none" stroke="#000000" d="M 660 319 L 606 243" stroke-miterlimit="10"/></g><g transform="translate(-67,-81) scale(1,1)"><path fill="#FFFFFF" stroke="none" d="M 603.0544499253243 248.70626285786392 C 603.0544499253243 244.84026925786392 606.1884563253243 241.70626285786392 610.0544499253243 241.70626285786392 C 613.9204435253243 241.70626285786392 617.0544499253243 244.84026925786392 617.0544499253243 248.70626285786392 C 617.0544499253243 252.57225645786392 613.9204435253243 255.70626285786392 610.0544499253243 255.70626285786392 C 606.1884563253243 255.70626285786392 603.0544499253243 252.57225645786392 603.0544499253243 248.70626285786392 Z"/></g><g transform="translate(-67,-81) scale(1,1)"><path fill="none" stroke="#000000" d="M 603.0544499253243 248.70626285786392 C 603.0544499253243 244.84026925786392 606.1884563253243 241.70626285786392 610.0544499253243 241.70626285786392 C 613.9204435253243 241.70626285786392 617.0544499253243 244.84026925786392 617.0544499253243 248.70626285786392 C 617.0544499253243 252.57225645786392 613.9204435253243 255.70626285786392 610.0544499253243 255.70626285786392 C 606.1884563253243 255.70626285786392 603.0544499253243 252.57225645786392 603.0544499253243 248.70626285786392 Z" stroke-miterlimit="10"/></g><g transform="translate(-67,-81) scale(1,1)"><path fill="none" stroke="#000000" d="M 614.1088998506488 254.41252571572784 L 606 243" stroke-miterlimit="10"/></g><g transform="translate(-67,-81) scale(1,1)"><path fill="none" stroke="#000000" d="M 615.7607127831882 244.65181293253957 L 604.3481870674605 252.7607127831883" stroke-miterlimit="10"/></g><g transform="translate(-67,-81) scale(1,1)"><rect fill="#C0C0C0" stroke="none" x="725.9501953125" y="327" width="27.5966796875" height="15" opacity="0.2"/></g><g transform="translate(-67,-81) scale(1,1)"><rect fill="#C0C0C0" stroke="none" x="725.9501953125" y="341" width="68.99169921875" height="25" opacity="0.2"/></g><g transform="translate(-67,-81) scale(1,1)"><rect fill="#6600cc" stroke="none" x="718.9501953125" y="335" width="68.99169921875" height="24"/></g><g transform="translate(-67,-81) scale(1,1)"><path fill="none" stroke="#000000" d="M 718.9501953125 335 L 787.94189453125 335 L 787.94189453125 359 L 718.9501953125 359 L 718.9501953125 335 Z Z" stroke-miterlimit="10"/></g><g transform="translate(-67,-81) scale(1,1)"><rect fill="#6600cc" stroke="none" x="718.9501953125" y="320" width="27.5966796875" height="15"/></g><g transform="translate(-67,-81) scale(1,1)"><path fill="none" stroke="#000000" d="M 718.9501953125 320 L 746.546875 320 L 746.546875 335 L 718.9501953125 335 L 718.9501953125 320 Z Z" stroke-miterlimit="10"/></g><g transform="translate(-67,-81) scale(1,1)"><rect fill="#6600cc" stroke="none" x="718.9501953125" y="334" width="68.99169921875" height="25"/></g><g transform="translate(-67,-81) scale(1,1)"><path fill="none" stroke="#000000" d="M 718.9501953125 334 L 787.94189453125 334 L 787.94189453125 359 L 718.9501953125 359 L 718.9501953125 334 Z Z" stroke-miterlimit="10"/></g><g transform="translate(-67,-81) scale(1,1)"><g><path fill="none" stroke="none"/><text fill="#000000" stroke="none" font-family="Arial" font-size="13px" font-style="normal" font-weight="bold" text-decoration="none" x="735.37744140625" y="354.5">looper</text></g></g><g transform="translate(-67,-81) scale(1,1)"><path fill="none" stroke="#000000" d="M 725 319 L 620 243" stroke-miterlimit="10"/></g><g transform="translate(-67,-81) scale(1,1)"><path fill="#FFFFFF" stroke="none" d="M 618.6704793493518 247.1043469576261 C 618.6704793493518 243.2383533576261 621.8044857493518 240.1043469576261 625.6704793493518 240.1043469576261 C 629.5364729493518 240.1043469576261 632.6704793493518 243.2383533576261 632.6704793493518 247.1043469576261 C 632.6704793493518 250.9703405576261 629.5364729493518 254.1043469576261 625.6704793493518 254.1043469576261 C 621.8044857493518 254.1043469576261 618.6704793493518 250.9703405576261 618.6704793493518 247.1043469576261 Z"/></g><g transform="translate(-67,-81) scale(1,1)"><path fill="none" stroke="#000000" d="M 618.6704793493518 247.1043469576261 C 618.6704793493518 243.2383533576261 621.8044857493518 240.1043469576261 625.6704793493518 240.1043469576261 C 629.5364729493518 240.1043469576261 632.6704793493518 243.2383533576261 632.6704793493518 247.1043469576261 C 632.6704793493518 250.9703405576261 629.5364729493518 254.1043469576261 625.6704793493518 254.1043469576261 C 621.8044857493518 254.1043469576261 618.6704793493518 250.9703405576261 618.6704793493518 247.1043469576261 Z" stroke-miterlimit="10"/></g><g transform="translate(-67,-81) scale(1,1)"><path fill="none" stroke="#000000" d="M 631.3409586987036 251.20869391525216 L 620 243" stroke-miterlimit="10"/></g><g transform="translate(-67,-81) scale(1,1)"><path fill="none" stroke="#000000" d="M 629.7748263069778 241.43386760827426 L 621.5661323917258 252.77482630697793" stroke-miterlimit="10"/></g><g transform="translate(-67,-81) scale(1,1)"><rect fill="#C0C0C0" stroke="none" x="804.94189453125" y="327" width="28.744335937499955" height="15" opacity="0.2"/></g><g transform="translate(-67,-81) scale(1,1)"><rect fill="#C0C0C0" stroke="none" x="804.94189453125" y="341" width="71.86083984375" height="25" opacity="0.2"/></g><g transform="translate(-67,-81) scale(1,1)"><rect fill="#008ed6" stroke="none" x="797.94189453125" y="335" width="71.86083984375" height="24"/></g><g transform="translate(-67,-81) scale(1,1)"><path fill="none" stroke="#000000" d="M 797.94189453125 335 L 869.802734375 335 L 869.802734375 359 L 797.94189453125 359 L 797.94189453125 335 Z Z" stroke-miterlimit="10"/></g><g transform="translate(-67,-81) scale(1,1)"><rect fill="#008ed6" stroke="none" x="797.94189453125" y="320" width="28.744335937499955" height="15"/></g><g transform="translate(-67,-81) scale(1,1)"><path fill="none" stroke="#000000" d="M 797.94189453125 320 L 826.68623046875 320 L 826.68623046875 335 L 797.94189453125 335 L 797.94189453125 320 Z Z" stroke-miterlimit="10"/></g><g transform="translate(-67,-81) scale(1,1)"><rect fill="#008ed6" stroke="none" x="797.94189453125" y="334" width="71.86083984375" height="25"/></g><g transform="translate(-67,-81) scale(1,1)"><path fill="none" stroke="#000000" d="M 797.94189453125 334 L 869.802734375 334 L 869.802734375 359 L 797.94189453125 359 L 797.94189453125 334 Z Z" stroke-miterlimit="10"/></g><g transform="translate(-67,-81) scale(1,1)"><g><path fill="none" stroke="none"/><text fill="#000000" stroke="none" font-family="Arial" font-size="13px" font-style="normal" font-weight="bold" text-decoration="none" x="808.583251953125" y="354.5">observer</text></g></g><g transform="translate(-67,-81) scale(1,1)"><path fill="none" stroke="#000000" d="M 797 322 L 627 239" stroke-miterlimit="10"/></g><g transform="translate(-67,-81) scale(1,1)"><path fill="#FFFFFF" stroke="none" d="M 626.2903118916657 242.07115227651914 C 626.2903118916657 238.20515867651915 629.4243182916657 235.07115227651914 633.2903118916657 235.07115227651914 C 637.1563054916658 235.07115227651914 640.2903118916657 238.20515867651915 640.2903118916657 242.07115227651914 C 640.2903118916657 245.93714587651914 637.1563054916658 249.07115227651914 633.2903118916657 249.07115227651914 C 629.4243182916657 249.07115227651914 626.2903118916657 245.93714587651914 626.2903118916657 242.07115227651914 Z"/></g><g transform="translate(-67,-81) scale(1,1)"><path fill="none" stroke="#000000" d="M 626.2903118916657 242.07115227651914 C 626.2903118916657 238.20515867651915 629.4243182916657 235.07115227651914 633.2903118916657 235.07115227651914 C 637.1563054916658 235.07115227651914 640.2903118916657 238.20515867651915 640.2903118916657 242.07115227651914 C 640.2903118916657 245.93714587651914 637.1563054916658 249.07115227651914 633.2903118916657 249.07115227651914 C 629.4243182916657 249.07115227651914 626.2903118916657 245.93714587651914 626.2903118916657 242.07115227651914 Z" stroke-miterlimit="10"/></g><g transform="translate(-67,-81) scale(1,1)"><path fill="none" stroke="#000000" d="M 639.5806237833315 245.1423045530383 L 627 239" stroke-miterlimit="10"/></g><g transform="translate(-67,-81) scale(1,1)"><path fill="none" stroke="#000000" d="M 636.3614641681849 235.7808403848534 L 630.2191596151466 248.36146416818488" stroke-miterlimit="10"/></g><g transform="translate(-67,-81) scale(1,1)"><rect fill="#C0C0C0" stroke="none" x="883.93359375" y="327" width="27.5966796875" height="15" opacity="0.2"/></g><g transform="translate(-67,-81) scale(1,1)"><rect fill="#C0C0C0" stroke="none" x="883.93359375" y="341" width="68.99169921875" height="25" opacity="0.2"/></g><g transform="translate(-67,-81) scale(1,1)"><rect fill="#00ff00" stroke="none" x="876.93359375" y="335" width="68.99169921875" height="24"/></g><g transform="translate(-67,-81) scale(1,1)"><path fill="none" stroke="#000000" d="M 876.93359375 335 L 945.92529296875 335 L 945.92529296875 359 L 876.93359375 359 L 876.93359375 335 Z Z" stroke-miterlimit="10"/></g><g transform="translate(-67,-81) scale(1,1)"><rect fill="#00ff00" stroke="none" x="876.93359375" y="320" width="27.5966796875" height="15"/></g><g transform="translate(-67,-81) scale(1,1)"><path fill="none" stroke="#000000" d="M 876.93359375 320 L 904.5302734375 320 L 904.5302734375 335 L 876.93359375 335 L 876.93359375 320 Z Z" stroke-miterlimit="10"/></g><g transform="translate(-67,-81) scale(1,1)"><rect fill="#00ff00" stroke="none" x="876.93359375" y="334" width="68.99169921875" height="25"/></g><g transform="translate(-67,-81) scale(1,1)"><path fill="none" stroke="#000000" d="M 876.93359375 334 L 945.92529296875 334 L 945.92529296875 359 L 876.93359375 359 L 876.93359375 334 Z Z" stroke-miterlimit="10"/></g><g transform="translate(-67,-81) scale(1,1)"><g><path fill="none" stroke="none"/><text fill="#000000" stroke="none" font-family="Arial" font-size="13px" font-style="normal" font-weight="bold" text-decoration="none" x="899.870361328125" y="354.5">utils</text></g></g><g transform="translate(-67,-81) scale(1,1)"><path fill="none" stroke="#000000" d="M 876 326 L 627 235" stroke-miterlimit="10"/></g><g transform="translate(-67,-81) scale(1,1)"><path fill="#FFFFFF" stroke="none" d="M 626.5746907699589 237.40279863480427 C 626.5746907699589 233.53680503480427 629.7086971699589 230.40279863480427 633.5746907699589 230.40279863480427 C 637.440684369959 230.40279863480427 640.5746907699589 233.53680503480427 640.5746907699589 237.40279863480427 C 640.5746907699589 241.26879223480427 637.440684369959 244.40279863480427 633.5746907699589 244.40279863480427 C 629.7086971699589 244.40279863480427 626.5746907699589 241.26879223480427 626.5746907699589 237.40279863480427 Z"/></g><g transform="translate(-67,-81) scale(1,1)"><path fill="none" stroke="#000000" d="M 626.5746907699589 237.40279863480427 C 626.5746907699589 233.53680503480427 629.7086971699589 230.40279863480427 633.5746907699589 230.40279863480427 C 637.440684369959 230.40279863480427 640.5746907699589 233.53680503480427 640.5746907699589 237.40279863480427 C 640.5746907699589 241.26879223480427 637.440684369959 244.40279863480427 633.5746907699589 244.40279863480427 C 629.7086971699589 244.40279863480427 626.5746907699589 241.26879223480427 626.5746907699589 237.40279863480427 Z" stroke-miterlimit="10"/></g><g transform="translate(-67,-81) scale(1,1)"><path fill="none" stroke="#000000" d="M 640.1493815399178 239.8055972696085 L 627 235" stroke-miterlimit="10"/></g><g transform="translate(-67,-81) scale(1,1)"><path fill="none" stroke="#000000" d="M 635.9774894047632 230.82810786484538 L 631.1718921351546 243.97748940476316" stroke-miterlimit="10"/></g><g transform="translate(-67,-81) scale(1,1)"><rect fill="#C0C0C0" stroke="none" x="646.95849609375" y="436" width="27.5966796875" height="15" opacity="0.2"/></g><g transform="translate(-67,-81) scale(1,1)"><rect fill="#C0C0C0" stroke="none" x="646.95849609375" y="450" width="68.99169921875" height="25" opacity="0.2"/></g><g transform="translate(-67,-81) scale(1,1)"><rect fill="#00d8b4" stroke="none" x="639.95849609375" y="444" width="68.99169921875" height="24"/></g><g transform="translate(-67,-81) scale(1,1)"><path fill="none" stroke="#000000" d="M 639.95849609375 444 L 708.9501953125 444 L 708.9501953125 468 L 639.95849609375 468 L 639.95849609375 444 Z Z" stroke-miterlimit="10"/></g><g transform="translate(-67,-81) scale(1,1)"><rect fill="#00d8b4" stroke="none" x="639.95849609375" y="429" width="27.5966796875" height="15"/></g><g transform="translate(-67,-81) scale(1,1)"><path fill="none" stroke="#000000" d="M 639.95849609375 429 L 667.55517578125 429 L 667.55517578125 444 L 639.95849609375 444 L 639.95849609375 429 Z Z" stroke-miterlimit="10"/></g><g transform="translate(-67,-81) scale(1,1)"><rect fill="#00d8b4" stroke="none" x="639.95849609375" y="443" width="68.99169921875" height="25"/></g><g transform="translate(-67,-81) scale(1,1)"><path fill="none" stroke="#000000" d="M 639.95849609375 443 L 708.9501953125 443 L 708.9501953125 468 L 639.95849609375 468 L 639.95849609375 443 Z Z" stroke-miterlimit="10"/></g><g transform="translate(-67,-81) scale(1,1)"><g><path fill="none" stroke="none"/><text fill="#000000" stroke="none" font-family="Arial" font-size="13px" font-style="normal" font-weight="bold" text-decoration="none" x="656.3857421875" y="463.5">loader</text></g></g><g transform="translate(-67,-81) scale(1,1)"><path fill="none" stroke="#000000" d="M 674 428 L 674 360" stroke-miterlimit="10"/></g><g transform="translate(-67,-81) scale(1,1)"><path fill="#FFFFFF" stroke="none" d="M 667 367 C 667 363.1340064 670.1340064 360 674 360 C 677.8659936 360 681 363.1340064 681 367 C 681 370.8659936 677.8659936 374 674 374 C 670.1340064 374 667 370.8659936 667 367 Z"/></g><g transform="translate(-67,-81) scale(1,1)"><path fill="none" stroke="#000000" d="M 667 367 C 667 363.1340064 670.1340064 360 674 360 C 677.8659936 360 681 363.1340064 681 367 C 681 370.8659936 677.8659936 374 674 374 C 670.1340064 374 667 370.8659936 667 367 Z" stroke-miterlimit="10"/></g><g transform="translate(-67,-81) scale(1,1)"><path fill="none" stroke="#000000" d="M 674 374 L 674 360" stroke-miterlimit="10"/></g><g transform="translate(-67,-81) scale(1,1)"><path fill="none" stroke="#000000" d="M 681 367 L 667 367" stroke-miterlimit="10"/></g><g transform="translate(-67,-81) scale(1,1)"><rect fill="#C0C0C0" stroke="none" x="725.9501953125" y="436" width="27.5966796875" height="15" opacity="0.2"/></g><g transform="translate(-67,-81) scale(1,1)"><rect fill="#C0C0C0" stroke="none" x="725.9501953125" y="450" width="68.99169921875" height="25" opacity="0.2"/></g><g transform="translate(-67,-81) scale(1,1)"><rect fill="#ffc1ad" stroke="none" x="718.9501953125" y="444" width="68.99169921875" height="24"/></g><g transform="translate(-67,-81) scale(1,1)"><path fill="none" stroke="#000000" d="M 718.9501953125 444 L 787.94189453125 444 L 787.94189453125 468 L 718.9501953125 468 L 718.9501953125 444 Z Z" stroke-miterlimit="10"/></g><g transform="translate(-67,-81) scale(1,1)"><rect fill="#ffc1ad" stroke="none" x="718.9501953125" y="429" width="27.5966796875" height="15"/></g><g transform="translate(-67,-81) scale(1,1)"><path fill="none" stroke="#000000" d="M 718.9501953125 429 L 746.546875 429 L 746.546875 444 L 718.9501953125 444 L 718.9501953125 429 Z Z" stroke-miterlimit="10"/></g><g transform="translate(-67,-81) scale(1,1)"><rect fill="#ffc1ad" stroke="none" x="718.9501953125" y="443" width="68.99169921875" height="25"/></g><g transform="translate(-67,-81) scale(1,1)"><path fill="none" stroke="#000000" d="M 718.9501953125 443 L 787.94189453125 443 L 787.94189453125 468 L 718.9501953125 468 L 718.9501953125 443 Z Z" stroke-miterlimit="10"/></g><g transform="translate(-67,-81) scale(1,1)"><g><path fill="none" stroke="none"/><text fill="#000000" stroke="none" font-family="Arial" font-size="13px" font-style="normal" font-weight="bold" text-decoration="none" x="737.551513671875" y="463.5">saver</text></g></g><g transform="translate(-67,-81) scale(1,1)"><path fill="none" stroke="#000000" d="M 739 428 L 689 360" stroke-miterlimit="10"/></g><g transform="translate(-67,-81) scale(1,1)"><path fill="#FFFFFF" stroke="none" d="M 686.1467331533427 365.639557088546 C 686.1467331533427 361.77356348854596 689.2807395533426 358.639557088546 693.1467331533427 358.639557088546 C 697.0127267533427 358.639557088546 700.1467331533427 361.77356348854596 700.1467331533427 365.639557088546 C 700.1467331533427 369.505550688546 697.0127267533427 372.639557088546 693.1467331533427 372.639557088546 C 689.2807395533426 372.639557088546 686.1467331533427 369.505550688546 686.1467331533427 365.639557088546 Z"/></g><g transform="translate(-67,-81) scale(1,1)"><path fill="none" stroke="#000000" d="M 686.1467331533427 365.639557088546 C 686.1467331533427 361.77356348854596 689.2807395533426 358.639557088546 693.1467331533427 358.639557088546 C 697.0127267533427 358.639557088546 700.1467331533427 361.77356348854596 700.1467331533427 365.639557088546 C 700.1467331533427 369.505550688546 697.0127267533427 372.639557088546 693.1467331533427 372.639557088546 C 689.2807395533426 372.639557088546 686.1467331533427 369.505550688546 686.1467331533427 365.639557088546 Z" stroke-miterlimit="10"/></g><g transform="translate(-67,-81) scale(1,1)"><path fill="none" stroke="#000000" d="M 697.2934663066852 371.27911417709197 L 689 360" stroke-miterlimit="10"/></g><g transform="translate(-67,-81) scale(1,1)"><path fill="none" stroke="#000000" d="M 698.7862902418887 361.4928239352034 L 687.5071760647967 369.7862902418886" stroke-miterlimit="10"/></g><g transform="translate(-67,-81) scale(1,1)"><rect fill="#C0C0C0" stroke="none" x="567.966796875" y="436" width="27.5966796875" height="15" opacity="0.2"/></g><g transform="translate(-67,-81) scale(1,1)"><rect fill="#C0C0C0" stroke="none" x="567.966796875" y="450" width="68.99169921875" height="25" opacity="0.2"/></g><g transform="translate(-67,-81) scale(1,1)"><rect fill="#ffdf82" stroke="none" x="560.966796875" y="444" width="68.99169921875" height="24"/></g><g transform="translate(-67,-81) scale(1,1)"><path fill="none" stroke="#000000" d="M 560.966796875 444 L 629.95849609375 444 L 629.95849609375 468 L 560.966796875 468 L 560.966796875 444 Z Z" stroke-miterlimit="10"/></g><g transform="translate(-67,-81) scale(1,1)"><rect fill="#ffdf82" stroke="none" x="560.966796875" y="429" width="27.5966796875" height="15"/></g><g transform="translate(-67,-81) scale(1,1)"><path fill="none" stroke="#000000" d="M 560.966796875 429 L 588.5634765625 429 L 588.5634765625 444 L 560.966796875 444 L 560.966796875 429 Z Z" stroke-miterlimit="10"/></g><g transform="translate(-67,-81) scale(1,1)"><rect fill="#ffdf82" stroke="none" x="560.966796875" y="443" width="68.99169921875" height="25"/></g><g transform="translate(-67,-81) scale(1,1)"><path fill="none" stroke="#000000" d="M 560.966796875 443 L 629.95849609375 443 L 629.95849609375 468 L 560.966796875 468 L 560.966796875 443 Z Z" stroke-miterlimit="10"/></g><g transform="translate(-67,-81) scale(1,1)"><g><path fill="none" stroke="none"/><text fill="#000000" stroke="none" font-family="Arial" font-size="13px" font-style="normal" font-weight="bold" text-decoration="none" x="579.561767578125" y="463.5">ghost</text></g></g><g transform="translate(-67,-81) scale(1,1)"><path fill="none" stroke="#000000" d="M 595 428 L 595 360" stroke-miterlimit="10"/></g><g transform="translate(-67,-81) scale(1,1)"><path fill="#FFFFFF" stroke="none" d="M 588 367 C 588 363.1340064 591.1340064 360 595 360 C 598.8659936 360 602 363.1340064 602 367 C 602 370.8659936 598.8659936 374 595 374 C 591.1340064 374 588 370.8659936 588 367 Z"/></g><g transform="translate(-67,-81) scale(1,1)"><path fill="none" stroke="#000000" d="M 588 367 C 588 363.1340064 591.1340064 360 595 360 C 598.8659936 360 602 363.1340064 602 367 C 602 370.8659936 598.8659936 374 595 374 C 591.1340064 374 588 370.8659936 588 367 Z" stroke-miterlimit="10"/></g><g transform="translate(-67,-81) scale(1,1)"><path fill="none" stroke="#000000" d="M 595 374 L 595 360" stroke-miterlimit="10"/></g><g transform="translate(-67,-81) scale(1,1)"><path fill="none" stroke="#000000" d="M 602 367 L 588 367" stroke-miterlimit="10"/></g><g transform="translate(-67,-81) scale(1,1)"><path fill="none" stroke="#000000" d="M 300 124 L 147 184" stroke-miterlimit="10" stroke-dasharray="3"/></g><g transform="translate(-67,-81) scale(1,1)"><path fill="none" stroke="#000000" d="M 154.92433548232512 176.37078594063826 L 147 184 L 157.9980203524477 184.20868235945082" stroke-miterlimit="10"/></g><g transform="translate(-67,-81) scale(1,1)"><path fill="none" stroke="#000000" d="M 371 126 L 556 207" stroke-miterlimit="10" stroke-dasharray="3"/></g><g transform="translate(-67,-81) scale(1,1)"><path fill="none" stroke="#000000" d="M 545.0021988020193 206.780070898481 L 556 207 L 548.3788935538307 199.06786683570198" stroke-miterlimit="10"/></g><g transform="translate(-67,-81) scale(1,1)"><path fill="none" stroke="#000000" d="M 147 200 L 556 220" stroke-miterlimit="10" stroke-dasharray="3"/></g><g transform="translate(-67,-81) scale(1,1)"><path fill="none" stroke="#000000" d="M 545.6438550952181 223.70813466734424 L 556 220 L 546.0550525420462 215.29914687971026" stroke-miterlimit="10"/></g></g></svg>